<svg height="492pt" viewBox="-38 0 492 492.00495" width="492pt" xmlns="http://www.w3.org/2000/svg" xmlns:xlink="http://www.w3.org/1999/xlink"><linearGradient id="lg1"><stop offset=".322" stop-color="#a163f5"/><stop offset=".466" stop-color="#b074ee"/><stop offset=".752" stop-color="#d8a1dd"/><stop offset=".898" stop-color="#efbad3"/></linearGradient><linearGradient id="linear0" gradientUnits="userSpaceOnUse" x1="208.114298" x2="208.114298" xlink:href="#lg1" y1="472.00048" y2="21.36048"/><linearGradient id="linear1" gradientUnits="userSpaceOnUse" x1="61.632298" x2="61.632298" xlink:href="#lg1" y1="472.00048" y2="21.36048"/><linearGradient id="linear2" gradientUnits="userSpaceOnUse" x1="354.596298" x2="354.596298" xlink:href="#lg1" y1="472.00048" y2="21.36048"/><path d="m151.621094 77.335938 35.316406 5.132812 15.800781 32c1.011719 2.046875 3.097657 3.34375 5.382813 3.34375 2.28125 0 4.367187-1.296875 5.378906-3.34375l15.800781-32 35.316407-5.132812c2.257812-.332032 4.132812-1.917969 4.835937-4.089844s.113281-4.554688-1.519531-6.144532l-25.558594-24.910156 6.039062-35.175781c.386719-2.25-.539062-4.527344-2.386718-5.871094-1.847656-1.339843-4.296875-1.519531-6.320313-.453125l-31.59375 16.609375-31.589843-16.609375c-2.019532-1.066406-4.46875-.886718-6.316407.453125-1.847656 1.34375-2.773437 3.621094-2.386719 5.871094l6.03125 35.175781-25.554687 24.910156c-1.636719 1.59375-2.222656 3.976563-1.519531 6.148438.707031 2.171875 2.582031 3.757812 4.84375 4.085938zm32.867187-28.753907c1.414063-1.378906 2.058594-3.363281 1.726563-5.3125l-4.511719-26.300781 23.621094 12.417969c1.746093.921875 3.835937.921875 5.582031 0l23.621094-12.417969-4.511719 26.300781c-.335937 1.949219.308594 3.933594 1.726563 5.3125l19.105468 18.625-26.40625 3.839844c-1.953125.28125-3.644531 1.511719-4.515625 3.28125l-11.8125 23.929687-11.808593-23.929687c-.875-1.769531-2.5625-3-4.519532-3.28125l-26.40625-3.839844zm0 0" fill="url(#linear0)"/><path d="m61.632812 174.101562c2.285157 0 4.367188-1.296874 5.378907-3.347656l15.800781-32 35.316406-5.128906c2.261719-.328125 4.140625-1.914062 4.84375-4.085938.707032-2.171874.117188-4.554687-1.515625-6.148437l-25.558593-24.914063 6.027343-35.175781c.386719-2.25-.539062-4.527343-2.386719-5.867187-1.847656-1.34375-4.296874-1.519532-6.316406-.457032l-31.589844 16.605469-31.589843-16.609375c-2.023438-1.058594-4.46875-.878906-6.316407.460938-1.84375 1.34375-2.769531 3.617187-2.382812 5.863281l6.03125 35.175781-25.5625 24.910156c-1.632812 1.597657-2.222656 3.980469-1.515625 6.152344.703125 2.171875 2.582031 3.753906 4.84375 4.082032l35.316406 5.132812 15.796875 32c1.007813 2.050781 3.09375 3.347656 5.378906 3.351562zm-16.328124-46.773437-26.410157-3.835937 19.109375-18.628907c1.414063-1.378906 2.058594-3.363281 1.726563-5.308593l-4.511719-26.300782 23.621094 12.417969c1.75.917969 3.835937.917969 5.585937 0l23.617188-12.417969-4.507813 26.300782c-.335937 1.945312.308594 3.929687 1.722656 5.308593l19.109376 18.628907-26.40625 3.835937c-1.953126.285156-3.644532 1.511719-4.519532 3.28125l-11.808594 23.933594-11.808593-23.933594c-.875-1.769531-2.566407-2.996094-4.519531-3.28125zm0 0" fill="url(#linear1)"/><path d="m388.859375 98.472656 6.03125-35.171875c.386719-2.25-.539063-4.523437-2.386719-5.863281-1.84375-1.34375-4.292968-1.523438-6.3125-.460938l-31.59375 16.605469-31.589844-16.609375c-2.023437-1.058594-4.46875-.878906-6.316406.460938-1.84375 1.34375-2.769531 3.617187-2.382812 5.863281l6.03125 35.175781-25.554688 24.910156c-1.636718 1.597657-2.226562 3.980469-1.519531 6.152344s2.582031 3.753906 4.84375 4.082032l35.316406 5.132812 15.796875 32c1.007813 2.046875 3.09375 3.34375 5.378906 3.34375 2.285157 0 4.371094-1.296875 5.378907-3.34375l15.796875-32 35.316406-5.132812c2.261719-.328126 4.140625-1.910157 4.84375-4.082032.707031-2.171875.117188-4.554687-1.515625-6.152344zm-17.933594 28.855469c-1.957031.285156-3.644531 1.511719-4.519531 3.28125l-11.808594 23.933594-11.8125-23.933594c-.871094-1.769531-2.5625-2.996094-4.515625-3.28125l-26.410156-3.835937 19.109375-18.628907c1.414062-1.378906 2.058594-3.363281 1.726562-5.308593l-4.511718-26.300782 23.621094 12.417969c1.746093.917969 3.835937.917969 5.582031 0l23.628906-12.421875-4.511719 26.300781c-.335937 1.945313.308594 3.933594 1.722656 5.3125l19.113282 18.625zm0 0" fill="url(#linear2)"/><path d="m170.113281 145.355469c-3.3125 0-6 2.683593-6 6v243.644531c-17.792969-23.933594-50.332031-31.410156-76.789062-17.648438-26.457031 13.765626-39.015625 44.695313-29.636719 73.007813 9.382812 28.308594 37.925781 45.625 67.367188 40.867187 29.441406-4.757812 51.074218-30.183593 51.058593-60.007812v-144.859375c22.691407-35.085937 65.757813-51.070313 105.847657-39.28125 40.085937 11.789063 67.644531 48.539063 67.734374 90.324219v.035156c0 3.316406 2.683594 6 6 6 3.3125 0 6-2.683594 6-6 0-105.917969-85.945312-192.082031-191.582031-192.082031zm-54.789062 334.644531c-26.945313-.003906-48.785157-21.847656-48.785157-48.789062.003907-26.945313 21.847657-48.785157 48.789063-48.785157 26.945313 0 48.785156 21.84375 48.785156 48.789063-.03125 26.933594-21.859375 48.757812-48.789062 48.785156zm140.171875-248.761719c-30.304688-.125-59.207032 12.75-79.382813 35.363281v-109.148437c71.941407 2.378906 133.300781 47.386719 159.71875 110.59375-20.144531-23.378906-49.476562-36.820313-80.335937-36.808594zm0 0" fill="url(#linear0)"/></svg>